<svg width="173" height="39" viewBox="0 0 173 39" fill="none" xmlns="http://www.w3.org/2000/svg">
<g clip-path="url(#clip0_266_168)">
<path d="M0 0.209229H10.1653V2.52243H0V0.209229ZM6.17501 17.0925H4.01026V9.50392H0.0199516V7.22211H10.1653V9.50392H6.17501V17.0925Z" fill="#D86123"/>
<path d="M25.2387 17.0925L30.2865 0.209229H32.5809L37.6287 17.0611H35.3342L34.1072 12.9999H28.7901L27.5332 17.0925H25.2387ZM29.3687 10.8123H33.4987L31.4337 3.96688L29.3687 10.8123Z" fill="#D86123"/>
<path d="M59.5355 15.041C59.9499 15.0438 60.3605 14.9583 60.7425 14.7898C61.1168 14.6291 61.4562 14.3906 61.7401 14.0885C62.0229 13.7861 62.2496 13.4312 62.4085 13.0418C62.5697 12.6448 62.6512 12.2172 62.6479 11.7858V10.8228H60.8024V8.58286H66.6482V10.8751H64.8127V11.8381C64.8201 12.5879 64.6844 13.3317 64.4136 14.0257C64.154 14.6827 63.7745 15.28 63.2963 15.7841C62.8224 16.2893 62.2556 16.6881 61.6304 16.9564C60.9662 17.2441 60.254 17.39 59.5355 17.3856C58.8201 17.3909 58.111 17.2449 57.4505 16.9564C56.8229 16.6897 56.2524 16.2939 55.7727 15.7924C55.293 15.2909 54.9138 14.6938 54.6573 14.0362C54.3913 13.3407 54.2558 12.5979 54.2583 11.8486V5.56836C54.2522 4.80848 54.3877 4.05467 54.6573 3.34936C54.9169 2.69237 55.2965 2.09501 55.7746 1.59091C56.2702 1.07815 56.8577 0.673539 57.5033 0.400459C58.1488 0.127378 58.8395 -0.0087555 59.5355 -7.45752e-05C60.2947 -0.0309763 61.0492 0.138153 61.7301 0.491874C62.2605 0.766527 62.7509 1.11896 63.1866 1.53857C63.6128 2.00272 63.9694 2.53211 64.244 3.10862L62.4085 4.33326C62.2628 3.94881 62.0534 3.59444 61.79 3.28656C61.5355 2.99719 61.2351 2.75636 60.9022 2.5748C60.4762 2.36329 60.0057 2.26961 59.5355 2.30266C59.1211 2.29985 58.7104 2.38531 58.3284 2.55387C57.9561 2.71841 57.6175 2.95649 57.3308 3.25516C57.0416 3.55196 56.8141 3.90833 56.6624 4.30186C56.4999 4.70207 56.4184 5.13335 56.423 5.56836V11.8486C56.4197 12.28 56.5012 12.7076 56.6624 13.1046C56.8141 13.4981 57.0416 13.8545 57.3308 14.1513C57.6148 14.4534 57.9541 14.6919 58.3284 14.8526C58.7146 14.9997 59.1251 15.0638 59.5355 15.041V15.041Z" fill="#D86123"/>
<path d="M93.1539 17.0925H83.7467V0.209229H85.9214V14.8002H90.9692V12.7696H93.1539V17.0925Z" fill="#D86123"/>
<path d="M111.739 14.8002V2.52243H108.866V0.209229H116.786V2.52243H113.913V14.8002H116.786V17.0925H108.866V14.8002H111.739Z" fill="#D86123"/>
<path d="M144.2 0.209229V17.0611H142.025L136.289 5.29619V17.0925H134.104V2.52243H132.269V0.209229H136.259L141.995 12.0055V0.209229H144.2Z" fill="#D86123"/>
<path d="M173 17.0925H163.363V0.209229H173V2.52243H165.538V7.46285H170.935V9.74466H165.538V14.8002H173V17.0925Z" fill="#D86123"/>
<path d="M26.9246 33.5259H0.189545V35.0959H26.9246V33.5259Z" fill="#D86123"/>
<path d="M172.771 33.5259H146.035V35.0959H172.771V33.5259Z" fill="#D86123"/>
<path d="M29.8076 29.9983H31.4836V38.801H29.8076V29.9983Z" fill="#D86123"/>
<path d="M41.5591 29.9983H43.2151V38.801H41.5591L37.7484 32.6569V38.8324H36.1024V29.9983H37.8481L41.5691 35.9854L41.5591 29.9983Z" fill="#D86123"/>
<path d="M52.712 29.9983V31.6102H48.7217V33.7036H51.1658V35.3155H48.7417V38.8324H47.0757V29.9983H52.712Z" fill="#D86123"/>
<path d="M65.0321 34.426C65.0282 35.3268 64.7702 36.2062 64.2908 36.9534C63.8114 37.7007 63.1319 38.2824 62.3379 38.6252C61.544 38.968 60.6711 39.0566 59.8293 38.8799C58.9874 38.7031 58.2143 38.2689 57.6072 37.6319C57.0001 36.995 56.5863 36.1837 56.4178 35.3004C56.2494 34.4171 56.3338 33.5013 56.6605 32.6683C56.9873 31.8352 57.5417 31.1223 58.2538 30.6192C58.966 30.1162 59.8042 29.8456 60.6627 29.8414C61.2376 29.8372 61.8076 29.953 62.3395 30.1819C62.8714 30.4108 63.3547 30.7483 63.7612 31.1749C64.1678 31.6014 64.4894 32.1085 64.7076 32.6666C64.9258 33.2247 65.0361 33.8227 65.0321 34.426ZM63.4659 34.426C63.4672 34.0398 63.3956 33.6572 63.255 33.3003C63.1145 32.9434 62.9079 32.6193 62.6472 32.3468C62.3865 32.0742 62.0769 31.8586 61.7363 31.7124C61.3956 31.5663 61.0307 31.4924 60.6627 31.4952C60.2969 31.4938 59.9345 31.5688 59.5967 31.716C59.2589 31.8632 58.9524 32.0795 58.6951 32.3524C58.4379 32.6252 58.235 32.9491 58.0984 33.3051C57.9618 33.6612 57.8941 34.0422 57.8994 34.426C57.894 34.8078 57.9619 35.1869 58.099 35.5406C58.236 35.8944 58.4395 36.2156 58.6973 36.4851C58.9552 36.7546 59.262 36.967 59.5997 37.1095C59.9373 37.2521 60.2988 37.3219 60.6627 37.3148C61.0288 37.3232 61.3928 37.2546 61.7333 37.1131C62.0737 36.9715 62.3837 36.7599 62.6449 36.4907C62.9062 36.2214 63.1134 35.9 63.2544 35.5454C63.3954 35.1908 63.4673 34.8102 63.4659 34.426V34.426Z" fill="#D86123"/>
<path d="M75.0079 29.9983V31.5265H72.5339V38.801H70.838V31.5265H68.374V29.9983H75.0079Z" fill="#D86123"/>
<path d="M84.9837 29.9983V31.6102H80.4647V33.4419H83.4574V35.0434H80.4647V37.2205H85.0735V38.822H78.8486V29.9983H84.9837Z" fill="#D86123"/>
<path d="M96.4658 37.6812C95.8572 38.308 95.0878 38.7352 94.2516 38.9107C93.4154 39.0861 92.5486 39.0021 91.7571 38.6691C90.9657 38.336 90.2838 37.7682 89.7949 37.0352C89.3059 36.3021 89.0311 35.4354 89.0039 34.5411C89.0084 33.3334 89.4589 32.1745 90.2607 31.3079C91.0624 30.4413 92.1531 29.9344 93.3035 29.8938C94.4977 29.92 95.6339 30.4389 96.4658 31.3382L95.3685 32.3849C94.792 31.8614 94.065 31.5555 93.3035 31.5162C92.5572 31.5461 91.8514 31.8797 91.3356 32.4463C90.8198 33.013 90.5345 33.7681 90.5402 34.5516C90.5389 34.9327 90.6095 35.3104 90.7479 35.6628C90.8863 36.0152 91.0898 36.3353 91.3466 36.6049C91.6035 36.8744 91.9086 37.0879 92.2445 37.2331C92.5803 37.3783 92.9402 37.4524 93.3035 37.451C93.6852 37.4624 94.0651 37.3923 94.4201 37.2447C94.7752 37.0971 95.0978 36.8753 95.3685 36.5927L96.4658 37.6812Z" fill="#D86123"/>
<path d="M105.294 35.0957H102.002V38.801H100.297V29.9983H102.002V33.5466H105.294V29.9983H106.98V38.801H105.294V35.0957Z" fill="#D86123"/>
<path d="M117.904 29.9983H119.58V37.1996H123.241V38.801H117.904V29.9983Z" fill="#D86123"/>
<path d="M126.882 29.9983H128.558V37.1996H132.219V38.801H126.882V29.9983Z" fill="#D86123"/>
<path d="M135.8 29.9983H139.202C139.904 30.0011 140.576 30.2956 141.072 30.8175C141.567 31.3393 141.846 32.0459 141.846 32.7825C141.846 33.5256 141.566 34.2387 141.067 34.7661C140.568 35.2935 139.89 35.5926 139.182 35.5981H137.416V38.801H135.78V29.9983H135.8ZM137.436 31.5265V34.0595H139.202C139.522 34.0595 139.829 33.926 140.056 33.6885C140.282 33.451 140.409 33.1289 140.409 32.793C140.409 32.4571 140.282 32.1349 140.056 31.8974C139.829 31.6599 139.522 31.5265 139.202 31.5265H137.436Z" fill="#D86123"/>
</g>
<defs>
<clipPath id="clip0_266_168">
<rect width="173" height="39" fill="white"/>
</clipPath>
</defs>
</svg>
